<svg width="48" height="48" viewBox="0 0 48 48" fill="none" xmlns="http://www.w3.org/2000/svg">
<rect width="48" height="48" fill="#0F0F0F"/>
<path d="M12.8698 37V12H22.7587C24.6291 12 26.3605 12.3148 27.9531 12.9444C29.5457 13.5741 30.9346 14.463 32.1198 15.6111C33.3235 16.7407 34.2494 18.0648 34.8976 19.5833C35.5642 21.1019 35.8976 22.7407 35.8976 24.5C35.8976 26.2593 35.5642 27.8981 34.8976 29.4167C34.2494 30.9352 33.3328 32.2685 32.1476 33.4167C30.9624 34.5463 29.5735 35.4259 27.9809 36.0556C26.3883 36.6852 24.6476 37 22.7587 37H12.8698ZM20.092 30.1111H22.2865C23.1939 30.1111 24.0179 29.9722 24.7587 29.6944C25.4994 29.4167 26.1383 29.0278 26.6753 28.5278C27.2309 28.0093 27.6476 27.4074 27.9253 26.7222C28.2216 26.037 28.3698 25.2963 28.3698 24.5C28.3698 23.7037 28.2216 22.963 27.9253 22.2778C27.6476 21.5926 27.2309 21 26.6753 20.5C26.1383 19.9815 25.4994 19.5833 24.7587 19.3056C24.0179 19.0278 23.1939 18.8889 22.2865 18.8889H20.092V30.1111Z" fill="#F0193D"/>
</svg>
